<?xml version="1.0" encoding="UTF-8"?>
<svg width="314px" height="314px" viewBox="0 0 314 314" version="1.1" xmlns="http://www.w3.org/2000/svg" xmlns:xlink="http://www.w3.org/1999/xlink">
    <!-- Generator: Sketch 43.2 (39069) - http://www.bohemiancoding.com/sketch -->
    <title>Group 2</title>
    <desc>Created with Sketch.</desc>
    <defs></defs>
    <g id="Page-1" stroke="none" stroke-width="1" fill="none" fill-rule="evenodd">
        <g id="Group-2">
            <g id="Group">
                <circle id="Oval" fill="#053C5E" cx="157" cy="157" r="157"></circle>
                <rect id="Rectangle" fill="#2B2B2B" x="0" y="233" width="184" height="69"></rect>
                <text id="iri" font-family="CourierNewPS-BoldMT, Courier New" font-size="60" font-weight="bold" fill="#FFFFFF">
                    <tspan x="38.4912109" y="281">iri</tspan>
                </text>
                <path d="M135.676765,111.215287 C135.211714,113.540467 132.770932,120.688823 130.252813,127.100603 C127.734621,133.512383 125.2898,140.431445 124.819828,142.476214 C123.6868,147.405663 121.517836,147.185477 119.69487,141.95608 C116.899865,133.938362 105.171362,111.043501 103.859129,111.043501 C100.420089,111.043501 101.508757,114.986149 109.1771,130.30227 C113.739327,139.414532 118.032086,147.448041 118.716515,148.15443 C120.694817,150.196115 120.172626,154.319657 117.358599,158.877992 C113.567467,165.019055 107.570942,183.721189 108.054206,187.896804 C108.804956,194.383204 112.436054,192.210274 113.355359,184.724515 C114.48376,175.535577 120.945556,159.641154 124.897459,156.333653 C127.109021,154.482778 128.268636,151.905536 128.573284,148.163978 C128.818001,145.157747 131.906711,135.560972 135.437115,126.837819 C138.96752,118.114666 141.511492,110.079835 141.090434,108.982574 C139.755727,105.504315 136.554941,106.824333 135.676765,111.215287 M174.714659,126.841564 C169.37392,129.699438 169.197653,130.049915 167.452978,141.283475 C165.577352,153.360398 165.225112,168.513913 166.548289,180.203784 L167.566817,189.202501 L161.346213,191.9541 C154.601949,194.937416 150.91195,200.302465 153.156708,203.861146 C155.104824,206.949562 157.09025,206.70198 157.571826,203.310532 C158.083734,199.706169 166.097413,193.204052 170.29418,192.987978 C172.116999,192.894116 173.522874,191.717021 173.97823,189.903529 C174.383277,188.290613 177.740353,184.944554 181.438431,182.467858 C188.546172,177.707551 194.317883,170.450278 194.317883,166.273341 C194.317883,162.684548 189.493165,158.361603 185.487795,158.361603 C180.701636,158.361603 180.027195,155.239403 183.731222,150.229385 C188.308065,144.038966 188.284856,130.867646 183.690534,127.147387 C179.896537,124.075276 179.885006,124.074836 174.714659,126.841564 M182.67318,134.240439 C184.752542,140.153164 174.808961,161.185104 171.588639,157.68562 C169.868715,155.81653 172.863122,135.012708 175.266374,132.134564 C177.872553,129.013319 181.163896,129.949075 182.67318,134.240439 M184.854262,162.269586 C190.589839,163.855621 189.673839,167.881335 181.645765,176.371155 C177.281618,180.986262 173.904933,183.573859 173.371946,182.711474 C172.876636,181.91012 172.127869,176.711937 171.707987,171.159972 L170.944531,161.065463 L176.209475,161.200234 C179.105172,161.274339 182.995308,161.755548 184.854262,162.269586 M132.642184,172.492256 C131.593837,175.224098 133.152917,177.288844 136.264027,177.288844 C139.014965,177.288844 139.431396,176.221769 138.067531,172.667568 C137.039234,169.987871 133.645289,169.878218 132.642184,172.492256 M203.781503,185.840798 C203.781503,187.657595 209.264724,193.512152 210.966361,193.512152 C212.534035,193.512152 211.991059,187.391138 210.270768,185.670847 C208.092403,183.492409 203.781503,183.605293 203.781503,185.840798" id="Fill-6" fill="#427B8A" fill-rule="nonzero"></path>
            </g>
        </g>
    </g>
</svg>
